<?xml version="1.0"?>
<COLLADA xmlns="http://www.collada.org/2005/11/COLLADASchema" version="1.4.1">
	<asset>
		<contributor>
			<author>Assimp</author>
			<authoring_tool>Assimp Exporter</authoring_tool>
		</contributor>
		<created>2022-06-08T13:34:00</created>
		<modified>2022-06-08T13:34:00</modified>
		<unit name="meter" meter="1.000000" />
		<up_axis>Y_UP</up_axis>
	</asset>
	<library_effects>
		<effect id="police_sign-fx" name="police_sign">
			<profile_COMMON>
				<technique sid="standard">
					<phong>
						<diffuse>
							<color sid="diffuse">0.800000   0.800000   0.800000   1.000000</color>
						</diffuse>
					</phong>
				</technique>
			</profile_COMMON>
		</effect>
	</library_effects>
	<library_materials>
		<material id="police_sign" name="police_sign">
			<instance_effect url="#police_sign-fx"/>
		</material>
	</library_materials>
	<library_geometries>
		<geometry id="meshId0" name="meshId0_name" >
			<mesh>
				<source id="meshId0-positions" name="meshId0-positions">
					<float_array id="meshId0-positions-array" count="570"> 
						52.144241 27.948723 7.203867 52.144241 32.432884 7.203867 52.144241 -39.043655 -70.466278 52.144241 -40.507133 -66.445374 56.278656 27.948723 11.861563 56.278656 32.432884 11.861563 52.144241 32.432884 11.861563 52.144241 27.948723 11.861563 56.278656 -25.114662 7.203865 56.278656 -25.114662 11.861563 56.278656 -68.810226 11.316704 56.278656 -67.313263 7.203859 56.278656 27.948723 7.203867 56.278656 32.432884 7.203867 56.278656 32.432884 11.861563 56.278656 27.948723 11.861563 52.144241 -25.114662 11.861563 -52.143955 -25.114662 11.861563 -52.143955 -25.114662 7.203865 52.144241 -25.114662 7.203865 52.144241 -25.114662 7.203865 52.144241 27.948723 7.203867 56.278656 27.948723 7.203867 56.278656 -25.114662 7.203865 -52.143955 27.948723 11.861563 -50.351048 26.155807 11.861563 50.351334 26.155807 11.861563 52.621315 32.432884 11.384441 55.801586 32.432884 11.384441 55.801586 38.720215 11.384441 52.621315 38.720215 11.384441 56.278656 -25.114662 11.861563 52.144241 -25.114662 11.861563 -50.351048 26.155807 11.861563 -50.351048 26.155815 11.203196 50.351334 26.155815 11.203196 50.351334 26.155807 11.861563 52.144241 -40.507133 -66.445374 52.144241 -39.043655 -70.466278 56.278656 -39.043655 -70.466278 56.278656 -40.507133 -66.445374 56.278656 27.948723 7.203867 52.144241 27.948723 7.203867 52.144241 -40.507133 -66.445374 56.278656 -40.507133 -66.445374 52.144241 32.432884 7.203867 56.278656 32.432884 7.203867 56.278656 -39.043655 -70.466278 52.144241 -39.043655 -70.466278 56.278656 -40.507133 -66.445374 56.278656 -39.043655 -70.466278 52.144241 -67.313263 7.203859 56.278656 -67.313263 7.203859 56.278656 -68.810226 11.316704 52.144241 -68.810226 11.316704 52.144241 -25.114662 11.861563 52.144241 -25.114662 7.203865 52.144241 -67.313263 7.203859 52.144241 -68.810226 11.316704 56.278656 -25.114662 11.861563 52.144241 -25.114662 11.861563 52.144241 -68.810226 11.316704 56.278656 -68.810226 11.316704 56.278656 -67.313263 7.203859 
						52.144241 -67.313263 7.203859 52.621315 32.432884 7.680967 55.801586 32.432884 7.680967 56.278656 32.432884 7.203867 52.144241 32.432884 7.203867 55.801586 32.432884 11.384441 56.278656 32.432884 11.861563 52.621315 32.432884 11.384441 52.144241 32.432884 11.861563 55.801586 38.720215 7.680967 52.621315 38.720215 7.680967 52.621315 38.720215 11.384441 55.801586 38.720215 11.384441 55.801586 32.432884 7.680967 52.621315 32.432884 7.680967 52.621315 38.720215 7.680967 55.801586 38.720215 7.680967 52.621315 32.432884 7.680967 52.621315 32.432884 11.384441 52.621315 38.720215 11.384441 52.621315 38.720215 7.680967 55.801586 32.432884 11.384441 55.801586 32.432884 7.680967 55.801586 38.720215 7.680967 55.801586 38.720215 11.384441 -52.143955 32.432884 11.861563 50.351334 -23.321751 11.861565 50.351334 -23.321751 11.861565 50.351334 26.155807 11.861563 50.351334 26.155815 11.203196 50.351334 -23.321751 11.203196 50.351334 -23.321751 11.203196 -50.351048 -23.321751 11.203196 -50.351048 -23.321751 11.861565 50.351334 -23.321751 11.861565 -50.351048 -23.321751 11.861565 -52.143955 -25.114662 11.861563 52.144241 -25.114662 11.861563 50.351334 -23.321751 11.861565 -52.143955 27.948723 7.203867 -52.143955 32.432884 7.203867 52.144241 32.432884 7.203867 -52.143955 32.432884 7.203867 -52.143955 32.432884 11.861563 -52.143955 -25.114662 7.203865 -52.143955 27.948723 7.203867 -52.143955 -40.507133 -66.445374 -52.143955 -39.043655 -70.466278 -52.143955 32.432884 7.203867 -56.278374 27.948723 7.203867 -56.278374 27.948723 11.861563 -56.278374 32.432884 11.861563 -56.278374 32.432884 7.203867 -56.278374 -25.114662 7.203865 -56.278374 -67.313263 7.203859 -56.278374 -68.810226 11.316704 -56.278374 -25.114662 11.861563 -56.278374 -25.114662 7.203865 -56.278374 27.948723 7.203867 -56.278374 -25.114662 11.861563 -52.143955 -25.114662 11.861563 -56.278374 27.948723 11.861563 -52.621033 32.432884 11.384441 -52.621033 38.720215 11.384441 
						-55.801296 38.720215 11.384441 -55.801296 32.432884 11.384441 -56.278374 32.432884 11.861563 -52.143955 -40.507133 -66.445374 -56.278374 -40.507133 -66.445374 -56.278374 -39.043655 -70.466278 -52.143955 -39.043655 -70.466278 -56.278374 27.948723 7.203867 -56.278374 -40.507133 -66.445374 -52.143955 -40.507133 -66.445374 -52.143955 27.948723 7.203867 -52.143955 32.432884 7.203867 -52.143955 -39.043655 -70.466278 -56.278374 -39.043655 -70.466278 -56.278374 32.432884 7.203867 -56.278374 -39.043655 -70.466278 -56.278374 -40.507133 -66.445374 -52.143955 -67.313263 7.203859 -52.143955 -68.810226 11.316704 -56.278374 -68.810226 11.316704 -56.278374 -67.313263 7.203859 -52.143955 -25.114662 11.861563 -52.143955 -68.810226 11.316704 -52.143955 -67.313263 7.203859 -52.143955 -25.114662 7.203865 -56.278374 -25.114662 11.861563 -56.278374 -68.810226 11.316704 -52.143955 -68.810226 11.316704 -52.143955 -25.114662 11.861563 -52.143955 -67.313263 7.203859 -56.278374 -67.313263 7.203859 -52.621033 32.432884 7.680967 -56.278374 32.432884 7.203867 -55.801296 32.432884 7.680967 -56.278374 32.432884 11.861563 -55.801296 32.432884 11.384441 -52.621033 32.432884 11.384441 -55.801296 38.720215 7.680967 -55.801296 38.720215 11.384441 -52.621033 38.720215 11.384441 -52.621033 38.720215 7.680967 -55.801296 32.432884 7.680967 -55.801296 38.720215 7.680967 -52.621033 38.720215 7.680967 -52.621033 32.432884 7.680967 -52.621033 32.432884 7.680967 -52.621033 38.720215 7.680967 -52.621033 38.720215 11.384441 -52.621033 32.432884 11.384441 -55.801296 32.432884 11.384441 -55.801296 38.720215 11.384441 -55.801296 38.720215 7.680967 -55.801296 32.432884 7.680967 -50.351048 -23.321751 11.861565 -50.351048 -23.321751 11.861565 -50.351048 -23.321751 11.203196 -50.351048 26.155815 11.203196 -50.351048 26.155807 11.861563 -50.351048 -23.321751 11.203196 50.351334 -23.321751 11.203196 50.351334 26.155815 11.203196 -50.351048 26.155815 11.203196 
					</float_array>
					<technique_common>
						<accessor count="190" offset="0" source="#meshId0-positions-array" stride="3">
							<param name="X" type="float" />
							<param name="Y" type="float" />
							<param name="Z" type="float" />
						</accessor>
					</technique_common>
				</source>
				<source id="meshId0-normals" name="meshId0-normals">
					<float_array id="meshId0-normals-array" count="570"> 
						-1.000000 0.000000 0.000000 -1.000000 0.000000 0.000000 -1.000000 0.000000 0.000000 -1.000000 0.000000 0.000000 0.000000 0.000000 1.000000 0.000000 0.000000 1.000000 0.000000 0.000000 1.000000 0.000000 0.000000 1.000000 1.000000 -0.000000 -0.000000 1.000000 -0.000000 -0.000000 1.000000 -0.000000 -0.000000 1.000000 -0.000000 -0.000000 1.000000 0.000000 0.000000 1.000000 0.000000 0.000000 1.000000 0.000000 0.000000 1.000000 0.000000 0.000000 0.000000 -1.000000 0.000000 0.000000 -1.000000 0.000000 0.000000 -1.000000 0.000000 0.000000 -1.000000 0.000000 0.000000 0.000000 -1.000000 0.000000 0.000000 -1.000000 0.000000 0.000000 -1.000000 0.000000 0.000000 -1.000000 0.000000 0.000000 1.000000 0.000000 0.000000 1.000000 0.000000 0.000000 1.000000 0.000000 0.000000 1.000000 0.000000 0.000000 1.000000 0.000000 0.000000 1.000000 0.000000 0.000000 1.000000 0.000000 0.000000 1.000000 0.000000 0.000000 1.000000 0.000000 -1.000000 0.000000 0.000000 -1.000000 0.000000 0.000000 -1.000000 0.000000 0.000000 -1.000000 0.000000 0.000000 -0.939693 -0.342019 0.000000 -0.939693 -0.342019 0.000000 -0.939693 -0.342019 0.000000 -0.939693 -0.342019 0.000000 -0.732460 0.680810 0.000000 -0.732460 0.680810 0.000000 -0.732460 0.680810 0.000000 -0.732460 0.680810 0.000000 0.735836 -0.677159 0.000000 0.735836 -0.677159 0.000000 0.735836 -0.677159 0.000000 0.735836 -0.677159 1.000000 0.000000 0.000000 1.000000 0.000000 0.000000 0.000000 -0.939692 -0.342022 0.000000 -0.939692 -0.342022 0.000000 -0.939692 -0.342022 0.000000 -0.939692 -0.342022 -1.000000 0.000000 0.000000 -1.000000 0.000000 0.000000 -1.000000 0.000000 0.000000 -1.000000 0.000000 0.000000 0.000000 -0.012468 0.999922 0.000000 -0.012468 0.999922 0.000000 -0.012468 0.999922 0.000000 -0.012468 0.999922 0.000000 0.000000 -1.000000 
						0.000000 0.000000 -1.000000 0.000000 1.000000 0.000000 0.000000 1.000000 0.000000 0.000000 1.000000 0.000000 0.000000 1.000000 0.000000 0.000000 1.000000 0.000000 0.000000 1.000000 0.000000 0.000000 1.000000 0.000000 0.000000 1.000000 0.000000 0.000000 1.000000 0.000000 0.000000 1.000000 0.000000 0.000000 1.000000 0.000000 0.000000 1.000000 0.000000 0.000000 0.000000 -1.000000 0.000000 0.000000 -1.000000 0.000000 0.000000 -1.000000 0.000000 0.000000 -1.000000 -1.000000 0.000000 0.000000 -1.000000 0.000000 0.000000 -1.000000 0.000000 0.000000 -1.000000 0.000000 0.000000 1.000000 0.000000 0.000000 1.000000 0.000000 0.000000 1.000000 0.000000 0.000000 1.000000 0.000000 0.000000 0.000000 0.000000 1.000000 0.000000 0.000000 1.000000 -1.000000 0.000000 0.000000 -1.000000 0.000000 0.000000 -1.000000 0.000000 0.000000 -1.000000 0.000000 0.000000 0.000000 1.000000 0.000000 0.000000 1.000000 0.000000 0.000000 1.000000 0.000000 0.000000 1.000000 0.000000 0.000000 0.000000 1.000000 0.000000 0.000000 1.000000 0.000000 0.000000 1.000000 0.000000 0.000000 1.000000 0.000000 0.000000 -1.000000 0.000000 0.000000 -1.000000 0.000000 0.000000 -1.000000 0.000000 1.000000 0.000000 0.000000 1.000000 0.000000 0.000000 0.000000 -1.000000 1.000000 0.000000 0.000001 1.000000 0.000000 0.000001 1.000000 0.000000 0.000001 1.000000 0.000000 0.000001 -1.000000 0.000000 0.000000 -1.000000 0.000000 0.000000 -1.000000 0.000000 0.000000 -1.000000 0.000000 0.000000 -1.000000 0.000000 0.000000 -1.000000 0.000000 0.000000 -1.000000 0.000000 0.000000 -1.000000 0.000000 0.000000 0.000000 0.000000 -1.000000 0.000000 0.000000 -1.000000 0.000000 0.000000 1.000000 0.000000 0.000000 1.000000 0.000000 0.000000 1.000000 0.000000 0.000000 1.000000 0.000000 0.000000 1.000000 
						0.000000 0.000000 1.000000 0.000000 0.000000 1.000000 0.000000 0.000000 1.000000 0.000000 -0.939693 -0.342019 0.000000 -0.939693 -0.342019 0.000000 -0.939693 -0.342019 0.000000 -0.939693 -0.342019 0.000000 -0.732460 0.680810 0.000000 -0.732460 0.680810 0.000000 -0.732460 0.680810 0.000000 -0.732460 0.680810 0.000000 0.735836 -0.677159 0.000000 0.735836 -0.677159 0.000000 0.735836 -0.677159 0.000000 0.735836 -0.677159 -1.000000 0.000000 0.000000 -1.000000 0.000000 0.000000 0.000000 -0.939692 -0.342022 0.000000 -0.939692 -0.342022 0.000000 -0.939692 -0.342022 0.000000 -0.939692 -0.342022 1.000000 0.000000 0.000000 1.000000 0.000000 0.000000 1.000000 0.000000 0.000000 1.000000 0.000000 0.000000 0.000000 -0.012468 0.999922 0.000000 -0.012468 0.999922 0.000000 -0.012468 0.999922 0.000000 -0.012468 0.999922 0.000000 0.000000 -1.000000 0.000000 0.000000 -1.000000 0.000000 1.000000 0.000000 0.000000 1.000000 0.000000 0.000000 1.000000 0.000000 0.000000 1.000000 0.000000 0.000000 1.000000 0.000000 0.000000 1.000000 0.000000 0.000000 1.000000 0.000000 0.000000 1.000000 0.000000 0.000000 1.000000 0.000000 0.000000 1.000000 0.000000 0.000000 0.000000 -1.000000 0.000000 0.000000 -1.000000 0.000000 0.000000 -1.000000 0.000000 0.000000 -1.000000 1.000000 0.000000 0.000000 1.000000 0.000000 0.000000 1.000000 0.000000 0.000000 1.000000 0.000000 0.000000 -1.000000 0.000000 0.000000 -1.000000 0.000000 0.000000 -1.000000 0.000000 0.000000 -1.000000 0.000000 0.000000 0.000000 0.000000 1.000000 1.000000 0.000000 0.000000 1.000000 0.000000 0.000000 1.000000 0.000000 0.000000 1.000000 0.000000 0.000000 0.000000 0.000000 1.000000 0.000000 0.000000 1.000000 0.000000 0.000000 1.000000 0.000000 0.000000 1.000000 
					</float_array>
					<technique_common>
						<accessor count="190" offset="0" source="#meshId0-normals-array" stride="3">
							<param name="X" type="float" />
							<param name="Y" type="float" />
							<param name="Z" type="float" />
						</accessor>
					</technique_common>
				</source>
				<source id="meshId0-tangents" name="meshId0-tangents">
					<float_array id="meshId0-tangents-array" count="570"> 
						-0.000000 0.735830 -0.677166 -0.000000 0.735830 -0.677166 -0.000000 0.735835 -0.677160 -0.000000 0.735835 -0.677160 -1.000000 -0.000002 -0.000000 -1.000000 0.000002 0.000000 -1.000000 0.000006 0.000000 -1.000000 0.000017 0.000000 -0.000000 -0.939691 -0.342025 -0.000000 -0.939691 -0.342025 -0.000000 -0.939691 -0.342023 -0.000000 -0.939691 -0.342023 0.000000 -0.939691 -0.342023 0.000000 -0.939691 -0.342023 0.000000 -0.939691 -0.342024 0.000000 -0.939691 -0.342023 0.000004 0.000000 -1.000000 0.000000 -0.000000 -1.000000 0.000000 0.000000 -1.000000 0.000004 -0.000000 -1.000000 1.000000 0.000003 0.000000 1.000000 0.000000 0.000000 1.000000 0.000000 0.000000 1.000000 0.000004 0.000000 -1.000000 0.000004 0.000000 -1.000000 0.000002 0.000000 -1.000000 0.000065 0.000000 -1.000000 0.000000 0.000000 -1.000000 0.000000 0.000000 -1.000000 0.000000 0.000000 -1.000000 0.000000 0.000000 -1.000000 -0.000005 0.000000 -1.000000 -0.000032 0.000000 -0.029130 0.000000 -0.999576 -0.029130 0.000000 -0.999576 -0.029130 0.000000 -0.999576 -0.029130 0.000000 -0.999576 -0.000002 0.342019 -0.939693 -0.000001 0.342019 -0.939693 0.000000 0.342019 -0.939693 -0.000001 0.342019 -0.939693 0.000000 0.680810 0.732460 0.000000 0.680810 0.732460 -0.000000 0.680810 0.732460 -0.000000 0.680810 0.732460 1.000000 0.000000 0.000000 1.000000 0.000000 0.000000 1.000000 0.000000 0.000000 1.000000 0.000000 0.000000 0.000000 -0.939690 -0.342027 0.000000 -0.939690 -0.342027 1.000000 0.000001 -0.000002 1.000000 0.000000 -0.000001 1.000000 0.000000 0.000000 1.000000 0.000000 -0.000001 0.000000 -0.012468 0.999922 0.000000 -0.012468 0.999922 0.000000 -0.012465 0.999922 0.000000 -0.012466 0.999922 -1.000000 -0.000005 -0.000000 -1.000000 -0.000005 -0.000000 -1.000000 -0.000006 -0.000000 -1.000000 -0.000006 -0.000000 1.000000 0.000000 0.000000 
						1.000000 0.000000 0.000000 -1.000000 0.000000 -0.000011 -1.000000 0.000000 -0.000027 -1.000000 -0.000000 -0.000029 -1.000000 -0.000000 -0.000007 -1.000000 0.000000 -0.000035 -1.000000 0.000000 -0.000036 -1.000000 0.000000 -0.000003 -1.000000 0.000000 -0.000003 0.000000 0.000000 1.000000 0.000000 0.000000 1.000000 0.000000 0.000000 1.000000 0.000000 0.000000 1.000000 1.000000 0.000000 0.000000 1.000000 0.000000 0.000000 1.000000 0.000000 0.000000 1.000000 0.000000 0.000000 0.000000 -1.000000 0.000000 0.000000 -1.000000 0.000000 0.000000 -1.000000 0.000000 0.000000 -1.000000 0.000000 0.000000 0.000003 -1.000000 0.000000 0.000002 -1.000000 0.000000 0.000000 -1.000000 0.000000 0.000001 -1.000000 -1.000000 0.000005 -0.000000 -1.000000 -0.000083 0.000000 0.000000 0.004778 0.999989 0.000000 0.004773 0.999989 0.000000 0.004773 0.999989 0.000000 0.004778 0.999989 0.020020 -0.000000 0.999800 0.020020 -0.000000 0.999800 0.020020 -0.000000 0.999800 0.020020 -0.000000 0.999800 -1.000000 -0.000010 0.000000 -1.000000 -0.000010 0.000000 -1.000000 -0.000011 0.000000 -1.000000 -0.000011 0.000000 1.000000 0.000001 -0.000000 1.000000 0.000001 0.000000 1.000000 0.000000 0.000000 -1.000000 0.000000 -0.000018 -1.000000 0.000000 -0.000013 1.000000 0.000003 0.000000 0.000001 0.735809 -0.677189 0.000001 0.735835 -0.677161 0.000001 0.735835 -0.677161 0.000001 0.735811 -0.677187 0.000000 -0.939673 -0.342075 0.000000 -0.939674 -0.342071 0.000000 -0.939676 -0.342066 0.000000 -0.939674 -0.342072 0.000000 -0.939674 -0.342070 0.000000 -0.939675 -0.342069 0.000000 -0.939675 -0.342069 0.000000 -0.939674 -0.342070 1.000000 0.000004 0.000000 1.000000 0.000000 0.000000 -1.000000 0.000000 0.000000 -1.000000 0.000005 0.000000 -1.000000 0.000002 0.000000 -1.000000 0.000000 0.000000 -1.000000 0.000000 0.000000 
						-1.000000 0.000000 0.000000 -1.000000 0.000000 0.000000 -1.000000 0.000003 0.000000 0.000000 0.342019 -0.939693 0.000000 0.342019 -0.939693 0.000000 0.342019 -0.939693 0.000000 0.342019 -0.939693 -1.000000 0.000000 0.000000 -1.000000 0.000000 0.000000 -1.000000 0.000000 0.000000 -1.000000 0.000000 0.000000 -0.000000 0.677159 0.735836 0.000001 0.677159 0.735836 0.000001 0.677159 0.735836 -0.000000 0.677159 0.735836 0.000000 -0.939675 -0.342068 0.000000 -0.939675 -0.342068 -1.000000 0.000000 0.000000 -1.000000 0.000000 0.000000 -1.000000 0.000000 0.000000 -1.000000 0.000000 0.000000 0.000000 -0.012466 0.999922 0.000000 -0.012466 0.999922 0.000000 -0.012466 0.999922 0.000000 -0.012466 0.999922 -1.000000 0.000000 0.000000 -1.000000 0.000000 0.000000 -1.000000 0.000000 0.000000 -1.000000 0.000000 0.000000 1.000000 0.000000 0.000000 1.000000 0.000000 0.000000 -1.000000 0.000000 -0.000036 -1.000000 -0.000000 0.000034 -1.000000 -0.000000 0.000038 -1.000000 0.000000 0.000007 -1.000000 0.000000 0.000008 -1.000000 0.000000 -0.000024 -1.000000 0.000000 0.000000 -1.000000 0.000000 0.000000 -1.000000 0.000000 0.000000 -1.000000 0.000000 0.000000 1.000000 0.000000 0.000000 1.000000 0.000000 0.000000 1.000000 0.000000 0.000000 1.000000 0.000000 0.000000 0.000000 -0.000000 1.000000 0.000000 -0.000000 1.000000 0.000000 -0.000000 1.000000 0.000000 -0.000000 1.000000 0.000000 0.000000 -1.000000 0.000000 0.000000 -1.000000 0.000000 0.000000 -1.000000 0.000000 0.000000 -1.000000 -1.000000 0.000014 0.000000 0.000000 -0.005454 -0.999985 0.000000 -0.005453 -0.999985 0.000000 -0.005415 -0.999985 0.000000 -0.005415 -0.999985 0.000000 -1.000000 -0.000000 0.000000 -1.000000 -0.000000 0.000000 -1.000000 -0.000000 0.000000 -1.000000 -0.000000 
					</float_array>
					<technique_common>
						<accessor count="190" offset="0" source="#meshId0-tangents-array" stride="3">
							<param name="X" type="float" />
							<param name="Y" type="float" />
							<param name="Z" type="float" />
						</accessor>
					</technique_common>
				</source>
				<source id="meshId0-bitangents" name="meshId0-bitangents">
					<float_array id="meshId0-bitangents-array" count="570"> 
						-0.000000 -0.677166 -0.735830 -0.000000 -0.677166 -0.735830 -0.000000 -0.677160 -0.735835 -0.000000 -0.677160 -0.735835 0.000002 -1.000000 0.000000 -0.000002 -1.000000 0.000000 -0.000006 -1.000000 0.000000 -0.000017 -1.000000 0.000000 -0.000000 0.342025 -0.939691 -0.000000 0.342025 -0.939691 -0.000000 0.342023 -0.939691 -0.000000 0.342023 -0.939691 0.000000 0.342023 -0.939691 0.000000 0.342023 -0.939691 0.000000 0.342024 -0.939691 0.000000 0.342023 -0.939691 1.000000 0.000000 0.000004 1.000000 0.000000 0.000000 1.000000 0.000000 0.000000 1.000000 -0.000000 0.000004 0.000003 -1.000000 0.000000 0.000000 -1.000000 0.000000 0.000000 -1.000000 0.000000 0.000004 -1.000000 0.000000 -0.000004 -1.000000 0.000000 -0.000002 -1.000000 0.000000 -0.000065 -1.000000 0.000000 0.000000 -1.000000 0.000000 0.000000 -1.000000 0.000000 0.000000 -1.000000 0.000000 0.000000 -1.000000 0.000000 0.000005 -1.000000 0.000000 0.000032 -1.000000 0.000000 0.999576 -0.000000 -0.029130 0.999576 -0.000000 -0.029130 0.999576 -0.000000 -0.029130 0.999576 -0.000000 -0.029130 1.000000 0.000001 -0.000002 1.000000 0.000000 -0.000001 1.000000 0.000000 0.000000 1.000000 0.000000 -0.000001 -1.000000 0.000000 0.000000 -1.000000 0.000000 0.000000 -1.000000 -0.000000 -0.000000 -1.000000 -0.000000 -0.000000 0.000000 -0.677159 -0.735836 0.000000 -0.677159 -0.735836 0.000000 -0.677159 -0.735836 0.000000 -0.677159 -0.735836 0.000000 0.342027 -0.939690 0.000000 0.342027 -0.939690 0.000002 -0.342022 0.939692 0.000001 -0.342022 0.939692 0.000000 -0.342022 0.939692 0.000001 -0.342022 0.939692 0.000000 0.999922 0.012468 0.000000 0.999922 0.012468 0.000000 0.999922 0.012465 0.000000 0.999922 0.012466 0.000005 -0.999922 -0.012468 0.000005 -0.999922 -0.012468 0.000006 -0.999922 -0.012468 0.000006 -0.999922 -0.012468 0.000000 -1.000000 0.000000 
						0.000000 -1.000000 0.000000 -0.000011 0.000000 1.000000 -0.000027 0.000000 1.000000 -0.000029 0.000000 1.000000 -0.000007 0.000000 1.000000 -0.000035 0.000000 1.000000 -0.000036 0.000000 1.000000 -0.000003 0.000000 1.000000 -0.000003 0.000000 1.000000 1.000000 0.000000 0.000000 1.000000 0.000000 0.000000 1.000000 0.000000 0.000000 1.000000 0.000000 0.000000 0.000000 -1.000000 0.000000 0.000000 -1.000000 0.000000 0.000000 -1.000000 0.000000 0.000000 -1.000000 0.000000 0.000000 0.000000 1.000000 0.000000 0.000000 1.000000 0.000000 0.000000 1.000000 0.000000 0.000000 1.000000 0.000000 1.000000 0.000003 0.000000 1.000000 0.000002 0.000000 1.000000 0.000000 0.000000 1.000000 0.000001 -0.000005 -1.000000 0.000000 0.000083 -1.000000 0.000000 0.000000 0.999989 -0.004778 0.000000 0.999989 -0.004773 0.000000 0.999989 -0.004773 0.000000 0.999989 -0.004778 0.999800 0.000000 -0.020020 0.999800 0.000000 -0.020020 0.999800 0.000000 -0.020020 0.999800 0.000000 -0.020020 0.000010 -1.000000 0.000000 0.000010 -1.000000 0.000000 0.000011 -1.000000 0.000000 0.000011 -1.000000 0.000000 0.000001 -1.000000 0.000000 0.000001 -1.000000 0.000000 0.000000 -1.000000 0.000000 -0.000018 0.000000 1.000000 -0.000013 0.000000 1.000000 0.000003 -1.000000 0.000000 -0.000001 0.677189 0.735809 -0.000001 0.677161 0.735835 -0.000001 0.677161 0.735835 -0.000001 0.677187 0.735811 0.000000 -0.342075 0.939673 0.000000 -0.342071 0.939674 0.000000 -0.342066 0.939676 0.000000 -0.342072 0.939674 0.000000 -0.342070 0.939674 0.000000 -0.342069 0.939675 0.000000 -0.342069 0.939675 0.000000 -0.342070 0.939674 0.000004 -1.000000 0.000000 0.000000 -1.000000 0.000000 0.000000 -1.000000 0.000000 -0.000005 -1.000000 0.000000 -0.000002 -1.000000 0.000000 0.000000 -1.000000 0.000000 0.000000 -1.000000 0.000000 
						0.000000 -1.000000 0.000000 0.000000 -1.000000 0.000000 -0.000003 -1.000000 0.000000 1.000000 0.000000 0.000000 1.000000 0.000000 0.000000 1.000000 0.000000 0.000000 1.000000 0.000000 0.000000 -0.000000 -0.680810 -0.732460 -0.000000 -0.680810 -0.732460 -0.000000 -0.680810 -0.732460 -0.000000 -0.680810 -0.732460 1.000000 0.000000 0.000000 1.000000 -0.000000 -0.000000 1.000000 -0.000000 -0.000000 1.000000 0.000000 0.000000 0.000000 -0.342068 0.939675 0.000000 -0.342068 0.939675 0.000000 0.342022 -0.939692 0.000000 0.342022 -0.939692 0.000000 0.342022 -0.939692 0.000000 0.342022 -0.939692 0.000000 -0.999922 -0.012466 0.000000 -0.999922 -0.012466 0.000000 -0.999922 -0.012466 0.000000 -0.999922 -0.012466 0.000000 -0.999922 -0.012468 0.000000 -0.999922 -0.012468 0.000000 -0.999922 -0.012468 0.000000 -0.999922 -0.012468 0.000000 -1.000000 0.000000 0.000000 -1.000000 0.000000 -0.000036 0.000000 1.000000 0.000034 0.000000 1.000000 0.000038 0.000000 1.000000 0.000007 0.000000 1.000000 0.000008 0.000000 1.000000 -0.000024 0.000000 1.000000 0.000000 0.000000 1.000000 0.000000 0.000000 1.000000 0.000000 0.000000 1.000000 0.000000 0.000000 1.000000 0.000000 -1.000000 0.000000 0.000000 -1.000000 0.000000 0.000000 -1.000000 0.000000 0.000000 -1.000000 0.000000 0.000000 -1.000000 -0.000000 0.000000 -1.000000 -0.000000 0.000000 -1.000000 -0.000000 0.000000 -1.000000 -0.000000 0.000000 -1.000000 -0.000000 0.000000 -1.000000 -0.000000 0.000000 -1.000000 -0.000000 0.000000 -1.000000 -0.000000 -0.000014 -1.000000 0.000000 0.000000 0.999985 -0.005454 0.000000 0.999985 -0.005453 0.000000 0.999985 -0.005415 0.000000 0.999985 -0.005415 1.000000 0.000000 0.000000 1.000000 0.000000 0.000000 1.000000 0.000000 0.000000 1.000000 0.000000 0.000000 
					</float_array>
					<technique_common>
						<accessor count="190" offset="0" source="#meshId0-bitangents-array" stride="3">
							<param name="X" type="float" />
							<param name="Y" type="float" />
							<param name="Z" type="float" />
						</accessor>
					</technique_common>
				</source>
				<source id="meshId0-tex0" name="meshId0-tex0">
					<float_array id="meshId0-tex0-array" count="380"> 
						0.665405 0.312708 0.676861 0.302166 0.676861 0.668637 0.663668 0.661805 0.000000 0.015569 0.000000 0.000000 0.014355 0.000000 0.014355 0.015569 0.584068 0.065305 0.578537 0.050110 0.721741 0.000000 0.721741 0.015196 0.410947 0.128317 0.396317 0.133642 0.390786 0.118446 0.405416 0.113121 0.705571 0.664249 0.705570 0.302166 0.721741 0.302166 0.721741 0.664249 0.376434 0.551327 0.376434 0.367096 0.390788 0.367096 0.390788 0.551327 0.376432 0.015571 0.370208 0.021796 0.020580 0.021794 0.403645 0.380511 0.392603 0.380511 0.392603 0.358682 0.403645 0.358682 0.000001 0.199804 0.014356 0.199804 0.614402 0.302166 0.618137 0.302207 0.618137 0.516206 0.614402 0.516165 0.406958 0.402340 0.421814 0.402340 0.421814 0.416695 0.406958 0.416695 0.739889 0.683483 0.739889 0.697837 0.390788 0.697837 0.390788 0.683483 0.691216 0.302166 0.705570 0.302166 0.705570 0.668635 0.691215 0.668635 0.721741 0.287310 0.721741 0.302166 0.392603 0.402340 0.406958 0.402340 0.406958 0.417536 0.392603 0.417536 0.650476 0.453885 0.634306 0.453683 0.636133 0.307185 0.650476 0.302166 0.000001 0.199804 0.014356 0.199804 0.014357 0.351527 0.000002 0.351527 0.390788 0.697837 
						0.376434 0.697837 0.343653 0.699494 0.332612 0.699494 0.330956 0.697837 0.345310 0.697837 0.332612 0.712351 0.330956 0.714008 0.343653 0.712351 0.345310 0.714008 0.412616 0.315024 0.412616 0.303983 0.425474 0.303983 0.425474 0.315024 0.403645 0.402340 0.392603 0.402340 0.392603 0.380511 0.403645 0.380511 0.412616 0.302166 0.412616 0.315024 0.390786 0.315024 0.390786 0.302166 0.390786 0.315024 0.403645 0.315024 0.403645 0.336853 0.390786 0.336853 0.376432 0.000003 0.020581 0.193579 0.608050 0.302166 0.608050 0.452154 0.605432 0.452163 0.605432 0.302175 0.610668 0.516180 0.610668 0.302194 0.614402 0.302166 0.614402 0.516152 0.370207 0.193575 0.376432 0.199800 0.014356 0.199804 0.020581 0.193579 0.014354 0.367096 0.014355 0.351527 0.376434 0.351527 0.707393 0.697837 0.707393 0.714008 0.014354 0.551327 0.652212 0.658091 0.650476 0.308998 0.663668 0.302166 0.663668 0.668634 0.020161 0.871665 0.014630 0.886861 0.000000 0.881535 0.005532 0.866340 0.193282 0.934686 0.330956 0.984804 0.330955 1.000000 0.187750 0.949882 0.000000 0.551327 0.000000 0.367096 0.390786 0.199800 0.376432 0.199800 0.390786 0.015571 0.392603 0.358682 0.392603 0.336853 
						0.403645 0.336853 0.403645 0.358682 0.390786 0.000003 0.414686 0.373037 0.414686 0.358682 0.429542 0.358682 0.429542 0.373037 0.691215 0.302166 0.691215 0.651267 0.676861 0.651267 0.676861 0.302166 0.697425 0.728363 0.330956 0.728363 0.330956 0.714009 0.697425 0.714008 0.330956 0.697837 0.330955 0.712693 0.403645 0.402340 0.403645 0.387144 0.417999 0.387144 0.417999 0.402340 0.634306 0.302166 0.634306 0.453885 0.619963 0.448866 0.618137 0.302368 0.390786 0.199800 0.390786 0.351517 0.376432 0.351517 0.376432 0.199800 0.014354 0.697836 0.000000 0.697836 0.709049 0.699494 0.721748 0.697837 0.720091 0.699494 0.721748 0.714008 0.720091 0.712352 0.709049 0.712352 0.425727 0.373037 0.425727 0.385895 0.414686 0.385895 0.414686 0.373037 0.403645 0.380511 0.403645 0.358682 0.414686 0.358682 0.414686 0.380511 0.403645 0.336853 0.403645 0.315024 0.416503 0.315024 0.416503 0.336853 0.403645 0.358682 0.403645 0.336853 0.416503 0.336853 0.416503 0.358682 0.370207 0.193575 0.608050 0.302166 0.610668 0.302177 0.610668 0.452166 0.608050 0.452155 0.893523 0.000000 0.893523 0.349629 0.721741 0.349629 0.721741 0.000000 
					</float_array>
					<technique_common>
						<accessor count="190" offset="0" source="#meshId0-tex0-array" stride="2">
							<param name="S" type="float" />
							<param name="T" type="float" />
						</accessor>
					</technique_common>
				</source>
				<vertices id="meshId0-vertices">
					<input semantic="POSITION" source="#meshId0-positions" />
				</vertices>
				<polylist count="124" material="defaultMaterial">
					<input offset="0" semantic="VERTEX" source="#meshId0-vertices" />
					<input offset="0" semantic="NORMAL" source="#meshId0-normals" />
					<input offset="0" semantic="TANGENT" source="#meshId0-tangents" />
					<input offset="0" semantic="BINORMAL" source="#meshId0-bitangents" />
					<input offset="0" semantic="TEXCOORD" source="#meshId0-tex0" set="0" />
					<vcount>
						3 3 3 3 3 3 3 3 3 3 3 3 3 3 3 3 3 3 3 3 3 3 3 3 3 3 3 3 3 3 3 3 3 3 3 3 3 3 3 3 3 3 3 3 3 3 3 3 3 3 3 3 3 3 3 3 3 3 3 3 3 3 3 3 
						3 3 3 3 3 3 3 3 3 3 3 3 3 3 3 3 3 3 3 3 3 3 3 3 3 3 3 3 3 3 3 3 3 3 3 3 3 3 3 3 3 3 3 3 3 3 3 3 3 3 3 3 3 3 3 3 3 3 3 3 
					</vcount>
					<p>
						3 0 1 1 2 3 7 4 5 5 6 7 11 8 9 9 10 11 15 12 13 13 14 15 19 16 17 17 18 19 23 20 21 21 22 23 26 7 24 24 25 26 30 27 28 28 29 30 32 31 4 4 7 32 9 8 12 12 15 9 36 33 34 34 35 36 40 37 38 38 39 40 44 41 42 42 43 44 48 45 46 46 47 48 50 13 12 12 49 50 54 51 52 52 53 54 58 55 56 56 57 58 62 59 60 60 61 62 64 20 23 23 63 64 68 65 66 66 67 68 67 66 69 69 70 67 70 69 71 71 72 70 72 71 65 65 68 72 76 73 74 74 75 76 80 77 78 78 79 80 84 81 82 82 83 84 88 85 86 86 87 88 89 24 7 7 6 89 7 26 90 90 32 7 94 91 92 92 93 94 98 95 96 96 97 98 102 99 100 100 101 102 
						105 21 103 103 104 105 68 106 107 107 72 68 21 20 108 108 103 21 112 109 110 110 111 112 116 113 114 114 115 116 120 117 118 118 119 120 113 117 120 120 114 113 103 108 121 121 122 103 125 123 124 124 24 125 129 126 127 127 128 129 130 125 24 24 89 130 134 131 132 132 133 134 138 135 136 136 137 138 142 139 140 140 141 142 113 116 143 143 144 113 148 145 146 146 147 148 152 149 150 150 151 152 156 153 154 154 155 156 121 108 157 157 158 121 161 159 106 106 160 161 163 161 160 160 162 163 164 163 162 162 107 164 159 164 107 107 106 159 168 165 166 166 167 168 172 169 170 170 171 172 176 173 174 174 175 176 180 177 178 178 179 180 181 25 24 24 124 181 185 182 183 183 184 185 189 186 187 187 188 189 
					</p>
				</polylist>
			</mesh>
		</geometry>
	</library_geometries>
	<library_visual_scenes>
		<visual_scene id="RootNode" name="RootNode">
			<node id="Cube" name="Cube">
				<matrix>1.000000 0.000000 0.000000 0.000000 0.000000 0.939693 0.342020 -0.000006 0.000000 -0.342020 0.939693 0.000000 0.000000 0.000000 0.000000 1.000000</matrix>
				<instance_geometry url="#meshId0">
					<bind_material>
						<technique_common>
							<instance_material symbol="defaultMaterial" target="#police_sign" />
						</technique_common>
					</bind_material>
				</instance_geometry>
			</node>
		</visual_scene>
	</library_visual_scenes>
	<scene>
		<instance_visual_scene url="#RootNode" />
	</scene>
</COLLADA>
