# Blender 4.5.0
# www.blender.org
mtllib Tree.mtl
o Tree_4
v 0.974052 1.938185 -0.863059
v 1.039999 9.580251 -1.000000
v 1.105947 1.938185 -0.863059
v 1.040000 1.938185 -1.151994
v 0.921167 1.938185 -1.094766
v 1.188183 1.938185 -0.966178
v 1.158833 1.938185 -1.094766
v 0.891817 1.938185 -0.966178
v 1.038300 1.021435 -1.287315
v 1.292345 1.021435 -1.120060
v 1.205442 1.021435 -0.931481
v 1.117020 1.021435 -0.757932
v 0.959579 1.021435 -0.844434
v 0.824704 1.021435 -0.966566
v 0.885187 1.021435 -1.117283
v 1.269565 0.543314 -0.899120
v 1.459508 0.543314 -1.214963
v 1.036231 0.543314 -1.592278
v 1.178280 0.543314 -0.496231
v 0.897230 0.516255 -0.778821
v 0.865201 0.543314 -1.207833
v 0.622785 0.543314 -0.937988
v 0.520167 3.279443 0.509771
v 0.224372 3.571044 0.682918
v 0.517525 4.754608 -0.809543
v 1.035726 4.443677 -0.954334
v 1.225933 3.483992 0.810612
v 1.519086 4.667556 -0.681849
v 2.431558 3.730823 -1.792213
v 2.758300 4.023076 -1.689961
v 1.506508 5.059946 -0.653450
v 1.033931 4.762984 -0.927116
v 2.101563 4.001871 -2.461889
v 0.849770 5.038742 -1.425378
v 0.006536 3.764352 -1.838372
v 0.027167 3.969436 -2.221117
v 1.207834 5.210799 -1.492323
v 1.053918 5.032930 -0.940008
v -0.573052 4.091990 -1.457492
v 0.607615 5.333354 -0.728698
v 2.452725 4.779757 -0.429333
v 2.501906 5.047847 -0.146314
v 1.023140 5.743234 -0.548051
v 1.026043 5.476448 -1.020531
v 2.736453 5.053713 -0.999510
v 1.257687 5.749101 -1.401248
v 1.135086 5.254586 -2.232846
v 1.340557 5.492799 -2.395292
v 1.427466 6.293791 -1.110777
v 1.046050 6.046484 -0.930756
v 0.548228 5.451849 -2.316147
v 0.635137 6.252840 -1.031633
v -0.012693 5.777603 0.007368
v -0.223776 6.072513 0.017007
v 0.685496 6.757879 -1.040153
v 1.043178 6.418134 -0.952767
v 0.436406 5.870613 0.453941
v 1.345678 6.555979 -0.603219
v 1.896293 6.197538 -0.264933
v 1.910745 6.405857 -0.067680
v 0.978899 6.991220 -0.617608
v 1.030208 6.768385 -0.941746
v 2.206889 6.340482 -0.639078
v 1.275042 6.925846 -1.189007
v 2.204433 6.654901 -1.180530
v 2.329954 6.806888 -0.961179
v 1.190470 7.192095 -0.576032
v 1.031472 7.079247 -0.933574
v 2.179195 6.983144 -1.583495
v 1.039711 7.368351 -1.198348
v 0.448002 6.381923 -1.544106
v 0.366053 6.544561 -1.771449
v 1.046456 7.495421 -1.336480
v 1.068594 7.315348 -0.977462
v 0.096711 6.466040 -1.178478
v 0.777113 7.416901 -0.743510
v 1.030349 6.986666 0.123242
v 0.937513 7.220123 0.270656
v 0.829115 7.852557 -0.799184
v 1.056121 7.577272 -0.984919
v 1.541718 7.031759 0.098086
v 1.433320 7.664193 -0.971754
v 2.196578 7.308560 -1.257677
v 2.331716 7.559523 -1.197623
v 1.255879 8.041046 -0.788977
v 1.054096 7.743875 -0.970038
v 2.031592 7.351434 -1.742554
v 0.955755 7.832957 -1.333908
v 0.454750 7.314514 -1.705282
v 0.422883 7.512169 -1.876322
v 1.104685 8.160295 -1.254372
v 1.068845 7.930085 -0.975184
v 0.117976 7.365570 -1.389303
v 0.799778 8.013695 -0.767353
v 0.287293 7.568693 -0.389934
v 0.131066 7.777432 -0.353069
v 0.802157 8.396589 -1.014904
v 1.063526 8.145590 -0.984691
v 0.604548 7.587125 -0.050999
v 1.275639 8.206282 -0.712834
v 1.631771 8.018501 -0.377322
v 1.643401 8.203386 -0.269001
v 0.985576 8.558125 -0.803848
v 1.026466 8.339197 -0.999343
v 1.879913 8.050087 -0.661570
v 1.222087 8.404824 -1.196417
v 1.353019 7.972555 -1.570207
v 1.511013 8.070683 -1.597104
v 1.305692 8.565823 -0.996777
v 1.061962 8.477318 -1.007139
v 1.124922 8.114016 -1.764895
v 0.919600 8.609158 -1.164568
v 0.715195 8.091118 -1.437407
v 0.737131 8.182423 -1.573302
v 1.145565 8.629189 -1.207207
v 1.066244 8.541762 -1.012021
v 0.478706 8.199886 -1.306303
v 0.887140 8.646652 -0.940207
v 0.524398 8.153856 -1.081273
v 0.433020 8.259129 -1.169893
v 0.966052 8.724223 -1.167031
v 1.065312 8.609415 -0.996739
v 0.468518 8.216183 -0.802098
v 1.001550 8.681277 -0.799237
v 0.689600 8.349975 -0.501165
v 0.568582 8.461447 -0.486554
v 0.849453 8.835894 -1.016974
v 1.044655 8.719837 -0.995540
v 0.902650 8.440802 -0.324231
v 1.183522 8.815248 -0.854651
v 1.619838 8.440519 -0.805632
v 1.671542 8.551991 -0.695243
v 1.079909 8.926437 -0.796259
v 1.039259 8.810381 -0.988381
v 1.721320 8.531346 -1.063309
v 1.129687 8.905792 -1.164326
v 1.074102 8.677229 -0.513352
v 1.007666 8.765352 -0.443550
v 0.912026 9.061364 -0.908284
v 1.041829 8.969616 -0.993435
v 1.293031 8.749031 -0.512673
v 1.197391 9.045043 -0.977406
v 0.912705 8.847240 -1.362090
v 0.948801 8.918041 -1.430583
v 1.124374 9.155869 -1.092212
v 1.042645 9.082155 -0.997995
v 0.743301 8.904928 -1.314737
v 0.918875 9.142756 -0.976367
v 0.680200 9.023203 -0.866194
v 0.611043 9.094004 -0.901000
v 0.946062 9.331831 -1.082887
v 1.041795 9.258118 -1.002938
v 0.730721 9.080892 -0.697709
v 1.065740 9.318718 -0.879596
v 1.343617 9.213429 -0.992952
v 1.384274 9.269507 -0.947046
v 1.084428 9.457877 -0.911596
v 1.037474 9.399493 -0.998512
v 1.355914 9.259122 -1.131726
v 1.056069 9.447491 -1.096276
v 1.162450 9.025998 -0.721995
v 1.138165 9.082075 -0.665687
v 0.978683 9.270444 -0.922064
v 1.037417 9.212060 -1.001497
v 1.293301 9.071690 -0.769821
v 1.133819 9.260057 -1.026199
v 0.899970 9.186277 -1.269879
v 0.920681 9.242354 -1.327597
v 1.095903 9.430723 -1.081708
v 1.042258 9.372339 -0.998754
v 0.772370 9.231969 -1.213954
v 0.947592 9.420338 -0.968065
v 0.994422 9.735263 -1.015563
v 1.074765 9.752773 -1.003585
v 1.152274 9.405665 -1.016047
v 1.041368 9.380359 -1.000972
v 0.937128 9.717665 -0.881754
v 1.014637 9.370557 -0.894217
v -0.257436 5.114706 -1.006832
v -0.391184 5.341713 -1.209999
v 0.892766 5.930538 -1.397325
v 1.050039 5.704634 -1.029450
v -0.285246 5.346680 -0.468274
v 0.998704 5.935505 -0.655599
vn -0.0000 0.0179 0.9998
vn -0.4338 0.0179 -0.9008
vn 0.9748 0.0179 -0.2225
vn -0.7817 0.0179 0.6234
vn 0.4338 0.0179 -0.9008
vn 0.7817 0.0179 0.6234
vn -0.9748 0.0179 -0.2225
vn 0.5126 0.1114 -0.8514
vn 0.5125 0.1114 -0.8514
vn 0.9806 0.0815 0.1780
vn 0.9807 0.0815 0.1779
vn 0.9807 0.0815 0.1780
vn 0.9807 0.0816 0.1779
vn 0.8499 0.0531 0.5242
vn 0.8499 0.0531 0.5243
vn -0.2859 0.0650 0.9561
vn -0.2858 0.0651 0.9561
vn -0.7195 0.0389 0.6934
vn -0.7194 0.0389 0.6935
vn -0.9504 0.0573 -0.3057
vn -0.6393 0.0790 -0.7649
vn -0.6392 0.0790 -0.7650
vn 0.0144 -0.9997 -0.0181
vn -0.8416 0.2229 -0.4920
vn -0.7915 0.2206 -0.5700
vn -0.7914 0.2206 -0.5701
vn -0.5420 0.2233 0.8102
vn -0.5420 0.2233 0.8101
vn -0.6332 0.2451 0.7342
vn -0.6331 0.2451 0.7342
vn 0.9330 0.2118 0.2908
vn 0.9330 0.2118 0.2909
vn 0.8627 0.1777 0.4735
vn 0.5748 0.3982 -0.7149
vn 0.5747 0.3982 -0.7149
vn 0.6174 0.5250 0.5858
vn -0.4882 0.7436 0.4569
vn -0.4882 0.7435 0.4569
vn -0.0837 0.6141 -0.7848
vn -0.0836 0.6142 -0.7847
vn 0.6454 0.7604 0.0719
vn 0.6455 0.7604 0.0719
vn -0.7774 0.6196 0.1087
vn -0.7773 0.6196 0.1087
vn -0.7773 0.6196 0.1086
vn -0.7774 0.6196 0.1086
vn -0.0930 0.5984 -0.7958
vn 0.5071 0.6885 -0.5185
vn 0.1914 0.8025 0.5650
vn 0.1914 0.8025 0.5651
vn -0.5071 -0.6885 0.5185
vn -0.7108 0.5987 -0.3693
vn -0.7108 0.5987 -0.3692
vn -0.7107 0.5987 -0.3693
vn 0.4037 0.7792 -0.4795
vn 0.4037 0.7791 -0.4795
vn 0.4424 0.4886 0.7521
vn 0.4424 0.4885 0.7521
vn 0.4423 0.4886 0.7521
vn -0.4373 0.8857 0.1561
vn -0.4374 0.8856 0.1561
vn -0.4374 0.8856 0.1560
vn 0.6784 0.5890 -0.4391
vn 0.6784 0.5890 -0.4392
vn 0.1605 0.8248 0.5422
vn 0.1704 0.8610 -0.4793
vn 0.1704 0.8609 -0.4793
vn 0.4050 0.6765 0.6151
vn -0.1704 -0.8610 0.4792
vn -0.8441 0.3839 0.3743
vn -0.8441 0.3839 0.3742
vn -0.8442 0.3839 0.3742
vn -0.4209 0.6350 -0.6478
vn -0.4209 0.6349 -0.6479
vn 0.8834 0.4221 0.2035
vn 0.8834 0.4221 0.2036
vn -0.1217 0.8635 0.4895
vn -0.0936 0.4485 -0.8889
vn -0.0936 0.4486 -0.8888
vn 0.3880 0.9214 0.0229
vn -0.8185 0.4200 0.3920
vn -0.2619 0.8175 -0.5130
vn -0.2619 0.8174 -0.5131
vn 0.8185 -0.4200 -0.3919
vn 0.8185 -0.4201 -0.3919
vn 0.4178 0.3674 0.8309
vn 0.4177 0.3675 0.8309
vn -0.4529 0.8454 0.2830
vn -0.4530 0.8454 0.2830
vn 0.7221 0.4485 -0.5266
vn 0.7222 0.4486 -0.5266
vn 0.1747 0.9214 0.3472
vn -0.1747 -0.9214 -0.3472
vn -0.3273 0.6431 -0.6923
vn -0.3272 0.6431 -0.6923
vn -0.3272 0.6431 -0.6924
vn 0.7179 0.6491 -0.2516
vn 0.7179 0.6491 -0.2515
vn 0.7180 0.6490 -0.2515
vn 0.7180 0.6491 -0.2515
vn -0.7950 0.6011 0.0814
vn -0.7950 0.6011 0.0813
vn -0.0180 0.6699 -0.7422
vn 0.0180 -0.6699 0.7423
vn -0.4669 0.4738 0.7466
vn -0.4670 0.4738 0.7466
vn -0.4670 0.4739 0.7466
vn -0.5923 0.7244 -0.3526
vn 0.4135 0.5953 0.6889
vn 0.4134 0.5953 0.6890
vn -0.5927 0.7804 0.1990
vn -0.5928 0.7804 0.1990
vn 0.5252 0.5953 -0.6081
vn 0.3743 0.7804 0.5008
vn 0.3743 0.7804 0.5009
vn 0.7574 0.5953 0.2682
vn -0.3305 0.7804 0.5308
vn -0.7574 -0.5953 -0.2682
vn -0.8018 0.5953 -0.0519
vn 0.1735 0.7804 -0.6007
vn 0.1736 0.7804 -0.6007
vn -0.0368 0.5953 0.8027
vn -0.0369 0.5953 0.8026
vn -0.6038 0.7804 -0.1622
vn -0.6038 0.7804 -0.1623
vn -0.6039 0.7804 -0.1623
vn 0.3317 0.5953 -0.7318
vn 0.3318 0.5953 -0.7318
vn 0.5007 0.7804 0.3745
vn 0.8034 0.5953 -0.0106
vn -0.1263 0.7804 0.6124
vn -0.1263 0.7804 0.6123
vn 0.1263 -0.7804 -0.6124
vn -0.8012 0.5953 0.0609
vn 0.0877 0.7804 -0.6191
vn 0.0878 0.7804 -0.6191
vn 0.0149 0.0057 0.9999
vn 0.0150 0.0057 0.9999
vn 0.9251 0.1650 0.3419
vn 0.9251 0.1651 0.3419
vn -0.2583 0.6885 0.6777
vn -0.2582 0.6885 0.6777
vn -0.4008 0.8025 -0.4419
vn -0.4009 0.8025 -0.4419
vt 0.372719 -2.956120
vt 0.532425 -2.956120
vt 0.452571 6.297384
vt 0.452572 -2.956120
vt 0.308681 -2.956120
vt 0.409807 -2.956120
vt 0.565510 -2.956120
vt 0.450760 6.297384
vt 0.284943 -2.956120
vt 0.596463 -2.956120
vt 0.449498 -3.800619
vt 0.790271 -3.800619
vt 0.611340 -3.800619
vt 0.358382 -3.800619
vt 0.125586 -3.800619
vt 0.555093 -3.800619
vt 0.343903 -3.800619
vt 0.241619 -3.800619
vt 0.405445 -3.800619
vt 0.607615 -3.800619
vt 0.244114 -3.800619
vt 0.730544 -2.717860
vt 0.448008 -1.878541
vt 0.960539 -2.335417
vt 0.620010 -3.205705
vt 0.279697 -2.863527
vt 0.240914 -2.344052
vt -0.052619 -2.670797
vt 0.702417 -4.645119
vt 0.835693 -3.800619
vt 1.167928 -4.645119
vt 0.375672 -4.645119
vt 0.279697 -4.677885
vt 0.162982 -3.800619
vt -0.052619 -4.645119
vt 0.620010 -4.645119
vt 0.328608 -4.645119
vt -0.159235 -4.645119
vt 0.711051 -4.645119
vt 0.448008 -4.645119
vt 0.960539 -4.645119
vt 0.000000 0.609557
vt 1.000000 0.762920
vt 0.000000 0.762920
vt 1.000000 0.492788
vt 0.000000 0.237080
vt 0.000000 0.609557
vt 1.000000 0.237080
s 1
usemtl Wood_2
f 1/1/1 3/2/1 2/3/1
f 4/4/2 5/5/2 2/3/2
f 6/6/3 7/7/3 2/8/3
f 8/6/4 1/9/4 2/8/4
f 7/10/5 4/4/5 2/3/5
f 3/9/6 6/6/6 2/8/6
f 5/7/7 8/6/7 2/8/7
f 9/11/8 7/10/9 10/12/9
f 9/11/8 4/4/9 7/10/9
f 10/13/10 6/6/11 11/14/12
f 10/13/10 7/7/13 6/6/11
f 11/14/14 3/9/15 12/15/14
f 11/14/14 6/6/15 3/9/15
f 12/16/16 1/1/17 13/17/16
f 12/16/16 3/2/17 1/1/17
f 13/18/18 8/6/18 14/19/19
f 13/18/18 1/9/18 8/6/18
f 14/19/20 5/7/20 15/20/20
f 14/19/20 8/6/20 5/7/20
f 15/21/21 4/4/22 9/11/21
f 15/21/21 5/5/22 4/4/22
f 16/22/23 18/23/23 17/24/23
f 18/23/23 16/22/23 19/25/23
f 18/23/23 19/25/23 20/26/23
f 18/23/23 20/26/23 21/27/23
f 21/27/23 20/26/23 22/28/23
f 21/29/24 9/30/24 18/31/24
f 21/29/24 15/20/24 9/30/24
f 22/32/25 15/20/25 21/29/26
f 22/32/25 14/19/25 15/20/25
f 20/33/27 14/34/28 22/35/27
f 20/33/27 13/17/27 14/34/28
f 19/36/29 13/17/30 20/33/30
f 19/36/29 12/16/30 13/17/30
f 16/37/31 12/15/32 19/38/32
f 16/37/31 11/14/32 12/15/32
f 17/39/33 11/14/33 16/37/33
f 17/39/33 10/13/33 11/14/33
f 18/40/34 10/12/34 17/41/34
f 18/40/34 9/11/35 10/12/34
usemtl Branch_1
f 23/42/36 25/43/36 24/44/36
f 23/42/36 26/45/36 25/43/36
f 27/46/37 26/45/37 23/47/37
f 27/46/38 28/48/38 26/45/38
f 29/42/39 31/43/39 30/44/39
f 29/42/40 32/45/40 31/43/40
f 33/46/41 32/45/41 29/47/41
f 33/46/42 34/48/42 32/45/42
f 35/42/43 37/43/43 36/44/44
f 35/42/45 38/45/46 37/43/46
f 39/46/47 38/45/47 35/47/47
f 39/46/47 40/48/47 38/45/47
f 41/42/48 43/43/48 42/44/48
f 45/46/49 44/45/50 41/47/50
f 45/46/49 46/48/50 44/45/50
f 41/42/51 43/43/51 44/45/51
f 47/42/52 49/43/52 48/44/53
f 47/42/54 50/45/54 49/43/54
f 51/46/55 50/45/55 47/47/55
f 51/46/55 52/48/56 50/45/55
f 53/42/57 55/43/58 54/44/57
f 53/42/59 56/45/59 55/43/59
f 57/46/60 56/45/60 53/47/60
f 57/46/61 58/48/61 56/45/62
f 59/42/63 61/43/63 60/44/64
f 59/42/63 62/45/63 61/43/63
f 63/46/65 62/45/65 59/47/65
f 63/46/65 64/48/65 62/45/65
f 65/42/66 67/43/67 66/44/66
f 69/46/68 68/45/68 65/47/68
f 69/46/68 70/48/68 68/45/68
f 65/42/69 67/43/69 68/45/69
f 71/42/70 73/43/70 72/44/70
f 71/42/71 74/45/72 73/43/71
f 75/46/73 74/45/73 71/47/73
f 75/46/74 76/48/74 74/45/74
f 77/42/75 79/43/75 78/44/75
f 77/42/75 80/45/76 79/43/75
f 81/46/77 80/45/77 77/47/77
f 81/46/77 82/48/77 80/45/77
f 83/42/78 85/43/78 84/44/78
f 83/42/79 86/45/79 85/43/79
f 87/46/80 86/45/80 83/47/80
f 87/46/80 88/48/80 86/45/80
f 89/42/81 91/43/81 90/44/81
f 93/46/82 92/45/83 89/47/82
f 93/46/82 94/48/83 92/45/83
f 89/42/84 91/43/85 92/45/85
f 95/42/86 97/43/86 96/44/86
f 95/42/87 98/45/87 97/43/87
f 99/46/88 98/45/88 95/47/88
f 99/46/89 100/48/89 98/45/89
f 101/42/90 103/43/90 102/44/90
f 101/42/91 104/45/91 103/43/91
f 105/46/92 104/45/92 101/47/92
f 105/46/93 104/45/93 106/48/93
f 107/42/94 109/43/94 108/44/94
f 107/42/95 110/45/96 109/43/96
f 111/46/97 110/45/98 107/47/98
f 111/46/99 112/48/99 110/45/100
f 113/42/101 115/43/101 114/44/101
f 113/42/102 116/45/102 115/43/102
f 117/46/103 116/45/103 113/47/103
f 117/46/104 116/45/104 118/48/104
f 119/42/105 121/43/106 120/44/105
f 119/42/107 122/45/107 121/43/107
f 123/46/108 122/45/108 119/47/108
f 123/46/108 124/48/108 122/45/108
f 125/42/109 127/43/109 126/44/109
f 125/42/110 128/45/110 127/43/110
f 129/46/111 128/45/111 125/47/111
f 129/46/112 130/48/112 128/45/112
f 131/42/113 133/43/113 132/44/113
f 131/42/113 134/45/113 133/43/113
f 135/46/114 134/45/114 131/47/114
f 135/46/115 136/48/115 134/45/115
f 137/42/116 139/43/116 138/44/116
f 141/46/117 140/45/117 137/47/117
f 141/46/117 142/48/117 140/45/117
f 137/42/118 139/43/118 140/45/118
f 143/42/119 145/43/119 144/44/119
f 143/42/119 146/45/119 145/43/119
f 147/46/120 146/45/120 143/47/120
f 147/46/121 148/48/121 146/45/121
f 149/42/122 151/43/122 150/44/122
f 149/42/123 152/45/123 151/43/123
f 153/46/124 152/45/124 149/47/124
f 153/46/125 154/48/126 152/45/125
f 155/42/127 157/43/127 156/44/127
f 155/42/128 158/45/128 157/43/128
f 159/46/129 158/45/129 155/47/129
f 159/46/129 160/48/129 158/45/129
f 161/42/130 163/43/130 162/44/130
f 161/42/130 164/45/130 163/43/130
f 165/46/131 164/45/132 161/47/132
f 165/46/133 164/45/133 166/48/133
f 167/42/134 169/43/134 168/44/134
f 167/42/134 170/45/134 169/43/134
f 171/46/135 170/45/135 167/47/135
f 171/46/135 172/48/135 170/45/136
f 173/42/137 175/43/137 174/44/137
f 173/42/138 176/45/137 175/43/138
f 177/46/139 176/45/139 173/47/139
f 177/46/140 178/48/140 176/45/140
f 179/42/141 181/43/141 180/44/142
f 179/42/141 182/45/141 181/43/141
f 183/46/143 182/45/144 179/47/143
f 183/46/144 184/48/144 182/45/143
