# Blender 4.5.0
# www.blender.org
mtllib Tree2.mtl
o Tree_2
v 0.039092 2.194953 -0.013045
v -0.138233 3.538524 -0.047479
v 0.053605 2.202297 0.034574
v 0.101686 2.219451 0.034412
v 0.116888 2.222708 -0.013306
v 0.078203 2.207567 -0.042636
v -0.345294 1.007215 0.176297
v -0.585910 1.906597 0.494868
v -0.377825 0.992713 0.220450
v -0.051644 0.511791 -0.012329
v -0.097050 0.464345 0.050025
v -0.017940 0.502964 0.071258
v -0.321441 0.994926 0.226278
v 0.388713 1.720396 -0.071099
v 1.352278 2.657121 0.064723
v 0.350827 1.770496 -0.025078
v -0.045574 1.011309 -0.094598
v -0.132073 1.066174 -0.024177
v -0.037301 1.006112 0.029321
v 0.387210 1.709024 0.005919
v -0.298980 2.176836 -0.418832
v -0.886665 3.043729 -0.854487
v -0.353655 2.145014 -0.435392
v 0.082044 1.756632 -0.011069
v 0.010120 1.682374 -0.025563
v 0.000279 1.749855 0.053475
v -0.345550 2.166397 -0.374128
v -0.024402 2.977232 -0.008079
v -0.198064 3.964620 0.246386
v -0.065322 2.983576 -0.031185
v 0.092299 2.350429 0.008635
v 0.052136 2.333768 -0.029347
v 0.047145 2.342738 0.031039
v -0.065251 2.963824 0.011924
v 0.000000 -0.082280 -0.162572
v 0.154615 -0.082280 -0.050238
v -0.002138 0.968286 -0.026030
v -0.082250 0.968286 -0.084235
v 0.095557 -0.082280 0.131524
v -0.032738 0.968286 0.068148
v -0.095557 -0.082280 0.131524
v -0.131763 0.968286 0.068148
v -0.154615 -0.082280 -0.050238
v -0.162363 0.968286 -0.026030
v -0.513474 1.609986 0.440546
v -0.685307 2.229528 0.417927
v -0.431251 2.424359 0.321266
v -0.105908 1.956098 0.138886
v -0.804671 1.496026 0.073615
v -1.130014 1.964288 0.255995
v -0.467194 0.965850 0.197751
v -0.366056 1.032439 0.207199
v 0.231570 1.425922 0.263023
v -0.436994 1.485319 0.448691
v -0.618858 1.798213 0.722821
v -0.809765 1.897932 0.626308
v -0.835314 1.602749 0.325141
v -0.518185 1.232375 0.661253
v -0.492636 1.527559 0.962420
v -0.357462 1.032253 0.289085
v -0.403362 1.085860 0.240436
v -0.674590 1.402627 -0.047028
v -0.252852 1.306951 -0.067018
v -0.433719 1.894227 0.020752
v -0.750703 1.913668 0.077953
v -0.796413 1.344537 0.165408
v -0.003728 1.305521 0.325814
v 0.041982 1.874652 0.238359
v 0.009799 0.723738 0.117456
v -0.104932 0.729385 0.094239
v -0.782885 0.762754 -0.042950
v -0.498003 0.937651 0.509875
v -0.716511 1.138140 0.790028
v -0.593457 1.259659 0.912777
v -0.296000 1.223896 0.679639
v -0.624072 1.095901 0.280690
v -0.921529 1.131664 0.513828
v -0.330490 0.872163 0.111048
v -0.283006 0.890689 0.168791
v -0.002418 1.000158 0.509998
v 1.029771 2.379846 0.082515
v 1.692715 2.919473 -0.139064
v 2.086476 2.689924 -0.193781
v 1.704629 1.962341 -0.201022
v 0.719130 2.482450 -0.492713
v 1.100977 3.210033 -0.485472
v 0.264462 1.848437 -0.087084
v 0.407101 1.773158 -0.044866
v 1.249961 1.328328 0.204607
v 0.921386 2.224302 0.149503
v 1.196006 2.740128 0.366009
v 1.206176 2.973206 0.141229
v 0.829722 2.695533 -0.201519
v 0.557844 2.274293 0.438359
v 0.934298 2.551966 0.781107
v 0.411053 1.801201 0.064546
v 0.450404 1.862171 -0.028068
v 0.682931 2.222441 -0.575332
v 0.817153 1.669519 -0.403923
v 1.433541 2.252759 -0.480569
v 1.267340 2.658273 -0.544819
v 0.535833 2.429840 -0.341458
v 0.959770 1.562477 0.209181
v 1.691276 1.790909 0.005819
v 0.251510 1.120412 0.058132
v 0.190150 1.245952 -0.021567
v -0.172427 1.987775 -0.492507
v 0.207554 2.013545 0.308318
v 0.321318 2.511068 0.538755
v 0.543603 2.494199 0.725963
v 0.680017 2.020195 0.557913
v 0.330359 2.142742 -0.071580
v 0.193945 2.616746 0.096469
v 0.231473 1.596381 -0.123017
v 0.282082 1.578644 -0.031905
v 0.581132 1.473834 0.506477
v -0.750776 2.750076 -0.702486
v -0.889637 3.370670 -1.083990
v -0.752527 3.682252 -0.903039
v -0.375178 3.302113 -0.467920
v -0.400723 2.563007 -1.091481
v -0.778072 2.943146 -1.526600
v -0.347162 2.086989 -0.529453
v -0.343464 2.193966 -0.439200
v -0.321617 2.826095 0.094108
v -0.715681 2.639366 -0.579910
v -1.126707 2.889645 -0.785636
v -1.089735 2.942655 -1.049918
v -0.707266 2.642594 -1.079267
v -0.923926 2.311988 -0.522666
v -1.306395 2.612049 -0.493316
v -0.431664 2.188104 -0.404634
v -0.400305 2.235955 -0.485196
v -0.215004 2.518710 -0.961235
v -0.062684 2.562564 -0.488033
v -0.319810 3.133069 -0.835053
v -0.470903 3.038246 -1.161471
v -0.471087 2.390436 -1.007510
v -0.430513 2.606038 -0.100288
v -0.430330 3.253848 -0.254248
v -0.085561 1.996169 0.029221
v -0.091434 1.964964 -0.102089
v -0.126134 1.780568 -0.878002
v -0.694983 2.012500 -0.457022
v -1.100941 2.126433 -0.665281
v -1.227153 2.289162 -0.533540
v -0.883647 2.377913 -0.277358
v -0.505312 2.166064 -0.711264
v -0.848818 2.077313 -0.967445
v -0.197147 2.041096 -0.381551
v -0.251906 2.071759 -0.318749
v -0.575481 2.252946 0.052354
v -0.191398 3.648815 0.165128
v -0.067300 4.301763 0.291782
v 0.094869 4.345218 0.600855
v 0.226059 3.731454 0.650712
v 0.135337 3.641129 -0.222513
v 0.004147 4.254894 -0.272370
v -0.059585 3.002007 -0.136153
v -0.046454 3.015080 -0.009764
v 0.031137 3.092331 0.737072
v -0.215858 3.497350 0.179052
v -0.456689 3.908801 0.205551
v -0.357517 4.082412 0.058450
v -0.106323 3.785538 -0.156476
v -0.491040 3.329890 0.023267
v -0.742234 3.626763 0.238193
v -0.129919 3.020773 0.012587
v -0.074236 3.086722 -0.013429
v 0.254797 3.476421 -0.167156
v 0.299524 3.179178 0.174820
v 0.302930 3.820360 0.297556
v 0.215896 4.000551 0.023453
v 0.012800 3.508614 -0.269459
v -0.080095 3.104193 0.474163
v 0.123000 3.596130 0.767075
v 0.024863 2.535187 0.177819
v 0.038308 2.593721 0.070189
v 0.117759 2.939607 -0.565803
v -0.389357 3.029474 -0.122630
v -0.661494 3.355906 -0.181525
v -0.752325 3.422862 0.010867
v -0.489254 3.215531 0.228148
v -0.135941 3.209013 -0.205840
v -0.399011 3.416345 -0.423121
v 0.025550 2.837966 -0.068798
v -0.025588 2.838909 -0.005983
v -0.327764 2.844483 0.365191
vn -0.9448 -0.1169 0.3060
vn 0.9319 0.1887 0.3098
vn -0.5804 -0.0973 -0.8085
vn 0.5787 0.0912 -0.8104
vn -0.8043 -0.0047 -0.5942
vn 0.4809 -0.8303 -0.2816
vn 0.8755 0.3516 -0.3314
vn -0.3496 0.4766 -0.8066
vn -0.5354 -0.8446 0.0003
vn 0.7007 -0.7076 -0.0908
vn 0.3853 -0.1923 -0.9025
vn 0.5183 -0.6175 0.5917
vn 0.4612 0.6278 0.6270
vn 0.5040 0.2976 -0.8108
vn 0.2433 -0.9563 0.1622
vn -0.9915 -0.1192 -0.0530
vn 0.4724 -0.1411 0.8700
vn 0.5845 0.1057 -0.8045
vn 0.9425 0.1336 0.3062
vn -0.0000 0.0602 0.9982
vn -0.0021 0.0274 0.9996
vn -0.0176 0.0588 0.9981
vn 0.9481 -0.0934 0.3039
vn -0.9510 -0.0141 0.3090
vn -0.5877 0.0143 -0.8089
vn -0.0000 -1.0000 -0.0000
vn -0.5969 0.1052 -0.7954
vn 0.5965 -0.0494 -0.8011
vn 0.5966 -0.0494 -0.8010
vn -0.9443 0.1509 0.2926
vn 0.7874 0.5633 -0.2503
vn 0.7874 0.5633 -0.2502
vn -0.0827 -0.3455 0.9348
vn -0.0826 -0.3455 0.9348
vn -0.0861 -0.3045 0.9486
vn -0.7379 -0.1866 -0.6486
vn -0.7379 -0.1866 -0.6485
vn -0.7380 -0.1866 -0.6485
vn 0.8522 -0.5183 -0.0714
vn 0.8522 -0.5183 -0.0715
vn -0.3551 0.2445 0.9023
vn -0.3549 0.2444 0.9024
vn -0.3546 0.2443 0.9025
vn -0.3196 0.2690 0.9086
vn -0.4839 0.3270 -0.8117
vn 0.3281 0.7948 0.5106
vn 0.3280 0.7948 0.5106
vn -0.8583 -0.4382 0.2672
vn -0.8582 -0.4383 0.2670
vn -0.8583 -0.4381 0.2672
vn -0.8582 -0.4384 0.2670
vn -0.8791 -0.4017 0.2565
vn 0.4828 -0.3400 -0.8070
vn 0.4829 -0.3400 -0.8070
vn 0.4195 0.1029 0.9019
vn -0.9817 -0.1786 -0.0653
vn 0.5910 0.0968 -0.8008
vn 0.4637 0.0824 0.8821
vn 0.4637 0.0824 0.8822
vn -0.4369 -0.3230 0.8395
vn -0.5726 -0.3249 0.7527
vn -0.5727 -0.3249 0.7527
vn 0.2332 0.0063 0.9724
vn 0.2332 0.0062 0.9724
vn 0.4635 0.6689 -0.5811
vn 0.4636 0.6689 -0.5811
vn 0.9820 0.1646 0.0929
vn 0.9683 0.0877 0.2337
vn 0.9683 0.0876 0.2337
vn 0.6611 0.6214 -0.4205
vn -0.3210 -0.0372 -0.9464
vn -0.3210 -0.0373 -0.9463
vn 0.6436 0.0754 -0.7616
vn 0.7474 0.1306 -0.6514
vn 0.7475 0.1306 -0.6514
vn -0.0760 0.0299 -0.9967
vn 0.3110 -0.7051 0.6372
vn 0.3111 -0.7051 0.6372
vn -0.4165 -0.9092 -0.0002
vn -0.4165 -0.9091 -0.0002
vn -0.5343 -0.8409 -0.0863
vn -0.5343 -0.8409 -0.0864
vn 0.1048 -0.8317 0.5452
vn 0.1048 -0.8318 0.5452
vn 0.1047 -0.8317 0.5452
vn 0.2687 -0.0589 0.9614
vn 0.0990 0.1352 0.9859
vn 0.0989 0.1352 0.9859
vn 0.5752 -0.7309 0.3674
vn 0.4988 -0.7033 0.5065
vn 0.4988 -0.7033 0.5066
vn 0.4987 -0.7033 0.5066
vn 0.8509 -0.4453 -0.2788
vn 0.8509 -0.4453 -0.2787
vn -0.1653 -0.0650 -0.9841
vn 0.3548 -0.7714 -0.5283
vn 0.4486 -0.7990 -0.4004
vn 0.4487 -0.7990 -0.4003
vn 0.0023 -0.2614 -0.9652
vn 0.0023 -0.2615 -0.9652
vn -0.5045 -0.3377 0.7946
vn -0.9997 -0.0229 -0.0010
vn -0.9889 0.0756 -0.1280
vn -0.8522 -0.5150 -0.0924
vn -0.0156 0.3535 0.9353
vn -0.0156 0.3534 0.9353
vn 0.4526 0.8274 0.3325
vn 0.8397 -0.0454 -0.5411
vn 0.7751 0.4087 0.4818
vn 0.9333 0.0968 -0.3459
vn 0.9333 0.0967 -0.3459
vn 0.9333 0.0968 -0.3458
vn -0.4227 -0.6339 0.6477
vn 0.0548 -0.9883 -0.1421
vn 0.0989 -0.9512 -0.2924
vn 0.0990 -0.9512 -0.2924
vn 0.0990 -0.9511 -0.2924
vn -0.3610 -0.8078 0.4660
vn -0.3609 -0.8078 0.4660
vn -0.8042 -0.0404 0.5930
vn -0.8042 -0.0405 0.5930
vn -0.9220 0.0183 -0.3868
vn -0.8504 0.0697 -0.5216
vn -0.8503 0.0697 -0.5216
vn -0.9283 0.0106 0.3716
vn -0.9284 0.0106 0.3716
vn -0.9284 0.0106 0.3715
vn -0.9284 0.0107 0.3715
vn 0.7343 0.3030 0.6075
vn 0.7343 0.3030 0.6074
vn 0.0328 -0.3019 0.9528
vn 0.0328 -0.3020 0.9528
vn -0.1204 -0.3466 0.9302
vn -0.1204 -0.3467 0.9302
vn 0.5874 0.1881 0.7871
vn 0.5874 0.1881 0.7872
vn 0.8889 0.0061 -0.4581
vn 0.8888 0.0061 -0.4582
vn 0.8206 -0.3226 0.4717
vn 0.8206 -0.3225 0.4717
vn 0.7327 -0.3097 0.6060
vn 0.7327 -0.3097 0.6061
vn 0.9737 -0.0549 -0.2212
vn 0.9737 -0.0550 -0.2212
vn 0.9737 -0.0550 -0.2211
vn -0.7218 -0.6888 0.0675
vn -0.7218 -0.6888 0.0674
vn -0.2044 -0.6037 -0.7706
vn -0.2044 -0.6036 -0.7706
vn -0.1190 -0.4990 -0.8584
vn -0.1189 -0.4990 -0.8584
vn -0.6744 -0.7146 -0.1858
vn -0.6744 -0.7146 -0.1859
vn -0.6743 -0.7147 -0.1859
vn -0.6743 -0.7146 -0.1859
vn -0.9820 -0.1646 -0.0928
vn -0.9683 -0.0876 -0.2338
vn -0.9683 -0.0877 -0.2338
vn -0.6611 -0.6214 0.4205
vn -0.6436 -0.0755 0.7616
vn -0.7474 -0.1306 0.6514
vn -0.7474 -0.1305 0.6514
vn 0.0760 -0.0300 0.9967
vn 0.0759 -0.0299 0.9967
vn -0.3111 0.7051 -0.6372
vn 0.4882 -0.5210 -0.7002
vn 0.4882 -0.5209 -0.7002
vn 0.5483 -0.6054 -0.5770
vn 0.5483 -0.6055 -0.5769
vn -0.0990 -0.1352 -0.9859
vn -0.0989 -0.1352 -0.9859
vn -0.8090 0.3131 0.4975
vn -0.5752 0.7309 -0.3675
vn -0.5752 0.7308 -0.3675
vn -0.3548 0.7714 0.5283
vn -0.0023 0.2615 0.9652
vn 0.5046 0.3377 -0.7946
vn 0.9889 -0.0757 0.1280
vn 0.7076 0.2467 -0.6621
vn 0.7077 0.2467 -0.6621
vn 0.7528 -0.1371 -0.6439
vn 0.7527 -0.1371 -0.6439
vn 0.7528 -0.1371 -0.6438
vn 0.8522 0.5150 0.0925
vn 0.7999 0.5497 0.2408
vn 0.7999 0.5497 0.2409
vn 0.8798 0.0128 -0.4752
vn 0.8798 0.0129 -0.4752
vn -0.5532 -0.8277 -0.0938
vn -0.5532 -0.8277 -0.0939
vn -0.1098 -0.4435 -0.8895
vn -0.1099 -0.4435 -0.8895
vn 0.0156 -0.3535 -0.9353
vn -0.8661 -0.3352 -0.3709
vn -0.7752 -0.4087 -0.4818
vn -0.0548 0.9883 0.1420
vn 0.1203 0.3466 -0.9302
vn 0.1203 0.3466 -0.9303
vt 0.512655 1.369161
vt 0.474025 1.375119
vt 0.540589 2.459116
vt 0.474156 1.389034
vt 0.512867 1.391676
vt 0.565514 1.379394
vt 0.533786 1.369161
vt 0.389933 2.459116
vt 0.596897 1.391676
vt 0.520935 0.855232
vt 0.489668 0.865526
vt 0.526269 1.466439
vt 0.500000 0.533561
vt 0.529064 0.483220
vt 0.470936 0.483220
vt 0.489397 0.850353
vt 0.517692 0.856064
vt 0.492841 0.864246
vt 0.506752 0.521866
vt 0.522312 0.494914
vt 0.485363 0.494443
vt 0.487144 0.863904
vt 0.513452 0.851844
vt 0.658565 1.466439
vt 0.492631 0.851254
vt 0.517698 0.855131
vt 0.502073 -0.478217
vt 0.500339 0.374042
vt 0.627503 -0.478217
vt 0.435348 0.374042
vt 0.542827 -0.478217
vt 0.446789 0.374042
vt 0.395376 -0.478217
vt 0.523189 0.374042
vt 0.579593 -0.478217
vt 0.395182 0.374042
vt 0.424553 -0.478217
vt 0.475515 0.374042
vt 0.584564 1.389034
vt 0.545559 1.375119
vt 0.523190 0.374042
vt 0.376643 -0.478217
vt 0.370358 0.374042
vt 0.579593 -0.518165
vt 0.502073 -0.279584
vt 0.627503 -0.370714
vt 0.424553 -0.518165
vt 0.376643 -0.370714
vt 0.533561 0.466439
vt 0.483220 0.466439
vt 0.529064 0.466439
vt 0.483778 0.865526
vt 0.470936 0.466439
vt 0.516878 0.850353
vt 0.521866 0.466439
vt 0.492532 0.851761
vt 0.494914 0.466439
vt 0.517599 0.855638
vt 0.522309 0.466628
vt 0.487397 0.863784
vt 0.486502 0.460869
vt 0.513706 0.851724
vt 0.498182 0.460859
vt 0.517869 0.855605
vt 0.527496 0.466642
vt 0.493018 0.863787
vt 0.367781 0.523488
vt 1.000000 1.000000
vt 0.654580 0.996608
vt 1.016551 0.495818
vt -0.015386 0.503888
vt 0.604539 1.008563
vt 0.000000 1.000000
vt 0.428799 0.511409
vt 0.000000 0.000000
vt 0.418740 0.473342
vt -0.014315 0.511378
vt 0.144738 0.000000
vt 0.144738 0.000000
vt 1.005786 0.506973
vt 0.388369 0.477853
vt 1.000000 0.000000
s 1
usemtl Wood_2.003
f 1/1/1 3/2/1 2/3/1
f 4/4/2 5/5/2 2/3/2
f 6/6/3 1/7/3 2/8/3
f 5/9/4 6/6/4 2/8/4
f 7/10/5 9/11/5 8/12/5
f 10/13/6 12/14/6 11/15/6
f 13/16/7 7/10/7 8/12/7
f 14/10/8 16/11/8 15/12/8
f 17/13/9 19/14/9 18/15/9
f 20/16/10 14/10/10 15/12/10
f 21/10/11 23/11/11 22/12/11
f 24/13/12 26/14/12 25/15/12
f 27/16/13 21/10/13 22/12/13
f 28/17/14 30/18/14 29/12/14
f 31/19/15 33/20/15 32/21/15
f 30/22/16 34/23/16 29/24/16
f 34/25/17 28/26/17 29/12/17
f 35/27/18 37/28/18 36/29/18
f 35/27/18 38/30/18 37/28/18
f 36/31/19 40/32/19 39/33/19
f 36/31/19 37/34/19 40/32/19
f 39/35/20 42/36/20 41/37/20
f 39/35/20 40/38/20 42/36/20
f 42/36/20 40/38/20 4/39/21
f 42/36/20 4/39/21 3/40/21
f 3/40/21 4/39/21 2/8/22
f 40/32/23 5/5/23 4/4/23
f 40/32/23 37/34/23 5/5/23
f 41/33/24 44/41/24 43/31/24
f 41/33/24 42/32/24 44/41/24
f 43/42/25 38/30/25 35/27/25
f 43/42/25 44/43/25 38/30/25
f 39/44/26 35/45/26 36/46/26
f 35/45/26 39/44/26 41/47/26
f 35/45/26 41/47/26 43/48/26
f 38/30/27 1/7/27 6/6/27
f 38/30/27 44/43/27 1/7/27
f 37/28/28 6/6/28 5/9/29
f 37/28/28 38/30/29 6/6/28
f 44/41/30 3/2/30 1/1/30
f 44/41/30 42/32/30 3/2/30
f 10/49/31 13/16/31 12/50/31
f 10/49/31 7/10/32 13/16/31
f 12/51/33 9/52/34 11/53/34
f 12/51/33 13/54/34 9/52/34
f 9/52/34 13/54/34 8/24/35
f 11/50/36 7/10/37 10/49/38
f 11/50/36 9/11/38 7/10/37
f 17/49/39 20/16/40 19/50/40
f 17/49/39 14/10/39 20/16/40
f 19/51/41 16/52/42 18/53/43
f 19/51/41 20/54/42 16/52/42
f 16/52/42 20/54/42 15/24/44
f 18/50/45 14/10/45 17/49/45
f 18/50/45 16/11/45 14/10/45
f 24/49/46 27/16/46 26/50/46
f 24/49/46 21/10/47 27/16/46
f 26/51/48 23/52/49 25/53/50
f 26/51/48 27/54/51 23/52/49
f 23/52/49 27/54/51 22/24/52
f 25/50/53 21/10/54 24/49/53
f 25/50/53 23/11/53 21/10/54
f 31/55/55 34/56/55 33/57/55
f 31/55/55 28/58/55 34/56/55
f 33/59/56 30/60/56 32/61/56
f 33/59/56 34/62/56 30/60/56
f 32/63/57 28/64/57 31/65/57
f 32/63/57 30/66/57 28/64/57
usemtl Branch_5.002
f 45/67/58 47/68/59 46/69/59
f 45/67/58 48/70/58 47/68/59
f 49/71/60 46/72/60 50/73/60
f 49/71/60 45/74/60 46/72/60
f 51/75/61 45/76/61 49/77/61
f 51/75/61 52/78/62 45/76/61
f 52/79/63 48/80/64 45/81/64
f 52/79/64 53/82/63 48/80/64
f 54/67/65 56/68/66 55/69/66
f 54/67/65 57/70/65 56/68/66
f 58/71/67 54/74/67 55/72/67
f 60/75/68 54/76/69 58/77/68
f 61/79/70 62/82/70 57/80/70
f 63/67/71 65/68/71 64/69/71
f 63/67/72 66/70/72 65/68/72
f 67/71/73 64/72/73 68/73/73
f 69/75/74 70/78/75 63/76/74
f 70/79/76 66/80/76 63/81/76
f 72/67/77 74/68/77 73/69/78
f 76/71/79 73/72/79 77/73/79
f 76/71/80 72/74/80 73/72/80
f 78/75/81 72/76/81 76/77/81
f 78/75/81 79/78/82 72/76/81
f 79/79/83 75/80/83 72/81/84
f 79/79/83 80/82/85 75/80/83
f 81/67/86 83/68/86 82/69/86
f 81/67/86 84/70/86 83/68/86
f 88/79/87 84/80/87 81/81/88
f 94/71/89 91/72/89 95/73/89
f 96/75/90 90/76/91 94/77/91
f 96/75/90 97/78/92 90/76/91
f 97/79/93 93/80/94 90/81/93
f 97/79/93 98/82/93 93/80/94
f 99/67/95 101/68/95 100/69/95
f 99/67/95 102/70/95 101/68/95
f 103/71/96 99/74/96 100/72/96
f 105/75/97 99/76/98 103/77/98
f 105/75/97 106/78/98 99/76/98
f 106/79/99 102/80/100 99/81/100
f 108/67/101 111/70/101 110/68/101
f 112/71/102 109/72/102 113/73/102
f 112/71/102 108/74/102 109/72/102
f 114/75/103 108/76/103 112/77/103
f 121/71/104 118/72/104 122/73/104
f 132/75/105 126/76/106 130/77/105
f 133/79/107 129/80/107 126/81/107
f 133/79/107 134/82/107 129/80/107
f 135/67/108 137/68/108 136/69/108
f 135/67/108 138/70/108 137/68/108
f 141/75/109 142/78/109 135/76/109
f 142/79/110 138/80/110 135/81/111
f 142/79/112 143/82/110 138/80/112
f 144/67/113 146/68/113 145/69/113
f 144/67/113 147/70/113 146/68/113
f 148/71/114 144/74/114 145/72/114
f 150/75/115 144/76/116 148/77/116
f 150/75/115 151/78/117 144/76/116
f 151/79/118 147/80/118 144/81/119
f 151/79/119 152/82/118 147/80/119
f 153/67/120 155/68/120 154/69/120
f 153/67/120 156/70/121 155/68/120
f 157/71/122 154/72/122 158/73/122
f 157/71/122 153/74/122 154/72/122
f 159/75/123 153/76/124 157/77/124
f 159/75/123 160/78/124 153/76/124
f 160/79/125 156/80/126 153/81/127
f 160/79/127 161/82/128 156/80/127
f 162/67/129 164/68/129 163/69/129
f 162/67/129 165/70/130 164/68/129
f 166/71/131 163/72/131 167/73/132
f 166/71/131 162/74/132 163/72/131
f 168/75/133 169/78/134 162/76/134
f 169/79/135 165/80/135 162/81/135
f 169/79/136 170/82/136 165/80/136
f 171/67/137 173/68/137 172/69/137
f 171/67/137 174/70/138 173/68/137
f 175/71/139 172/72/139 176/73/139
f 175/71/139 171/74/139 172/72/140
f 177/75/141 171/76/142 175/77/142
f 177/75/141 178/78/142 171/76/142
f 178/79/143 174/80/143 171/81/144
f 178/79/145 179/82/143 174/80/144
f 180/67/146 182/68/147 181/69/147
f 180/67/146 183/70/146 182/68/147
f 184/71/148 181/72/148 185/73/148
f 184/71/149 180/74/149 181/72/149
f 186/75/150 180/76/151 184/77/151
f 186/75/150 187/78/151 180/76/151
f 187/79/152 183/80/153 180/81/154
f 187/79/155 188/82/153 183/80/155
f 58/71/156 59/73/156 55/72/156
f 60/75/157 54/76/158 61/78/157
f 61/79/159 54/81/159 57/80/159
f 67/71/160 64/72/160 63/74/160
f 69/75/161 67/77/161 63/76/162
f 70/79/163 66/80/163 71/82/164
f 72/67/165 74/68/165 75/70/165
f 85/71/166 82/72/167 81/74/166
f 85/71/166 86/73/167 82/72/167
f 87/75/168 81/76/169 88/78/169
f 87/75/168 85/77/169 81/76/169
f 88/79/170 84/80/170 89/82/171
f 90/67/172 92/68/172 93/70/172
f 90/67/172 91/69/172 92/68/172
f 94/71/173 91/72/174 90/74/173
f 103/71/175 104/73/175 100/72/175
f 106/79/176 102/80/176 107/82/176
f 108/67/177 109/69/177 110/68/177
f 114/75/178 108/76/178 115/78/178
f 115/79/179 111/80/179 116/82/180
f 115/79/179 108/81/179 111/80/179
f 117/67/181 119/68/181 120/70/182
f 117/67/181 118/69/183 119/68/181
f 121/71/184 118/72/184 117/74/184
f 123/75/185 117/76/185 124/78/186
f 123/75/185 121/77/185 117/76/185
f 124/79/187 120/80/187 125/82/188
f 124/79/188 117/81/187 120/80/187
f 126/67/189 128/68/189 129/70/189
f 126/67/190 127/69/190 128/68/189
f 130/71/191 127/72/191 126/74/191
f 130/71/192 131/73/192 127/72/192
f 132/75/193 126/76/193 133/78/193
f 139/71/194 136/72/194 135/74/194
f 139/71/194 140/73/194 136/72/194
f 141/75/195 139/77/195 135/76/195
f 148/71/196 149/73/196 145/72/196
f 168/75/197 166/77/198 162/76/197
